<svg xmlns="http://www.w3.org/2000/svg" xmlns:xlink="http://www.w3.org/1999/xlink" width="500" zoomAndPan="magnify" viewBox="0 0 375 187.499995" height="250" preserveAspectRatio="xMidYMid meet" version="1.0"><defs><g/><clipPath id="aeb4fedd76"><path d="M 142.367188 2.59375 L 233.6875 2.59375 L 233.6875 93.914062 L 142.367188 93.914062 Z M 142.367188 2.59375 " clip-rule="nonzero"/></clipPath><clipPath id="5890588184"><path d="M 188.027344 2.59375 C 162.808594 2.59375 142.367188 23.039062 142.367188 48.253906 C 142.367188 73.472656 162.808594 93.914062 188.027344 93.914062 C 213.246094 93.914062 233.6875 73.472656 233.6875 48.253906 C 233.6875 23.039062 213.246094 2.59375 188.027344 2.59375 Z M 188.027344 2.59375 " clip-rule="nonzero"/></clipPath></defs><g clip-path="url(#aeb4fedd76)"><g clip-path="url(#5890588184)"><path fill="#ffffff" d="M 142.367188 2.59375 L 233.6875 2.59375 L 233.6875 93.914062 L 142.367188 93.914062 Z M 142.367188 2.59375 " fill-opacity="1" fill-rule="nonzero"/></g></g><g fill="#ffffff" fill-opacity="1"><g transform="translate(52.414102, 142.321663)"><g><path d="M 11.65625 0.453125 C 9.789062 0.453125 8.140625 0 6.703125 -0.90625 C 5.273438 -1.8125 4.15625 -3.179688 3.34375 -5.015625 C 2.53125 -6.847656 2.125 -9.101562 2.125 -11.78125 C 2.125 -14.476562 2.539062 -16.742188 3.375 -18.578125 C 4.207031 -20.410156 5.359375 -21.78125 6.828125 -22.6875 C 8.304688 -23.59375 10.015625 -24.046875 11.953125 -24.046875 C 13.421875 -24.046875 14.691406 -23.789062 15.765625 -23.28125 C 16.847656 -22.78125 17.757812 -21.992188 18.5 -20.921875 L 18.953125 -21.03125 L 18.953125 -33.078125 L 24.875 -33.078125 L 24.875 0 L 18.953125 0 L 18.953125 -3.0625 L 18.5 -3.140625 C 17.84375 -2.023438 16.941406 -1.144531 15.796875 -0.5 C 14.660156 0.132812 13.28125 0.453125 11.65625 0.453125 Z M 13.578125 -4.578125 C 15.253906 -4.578125 16.578125 -5.171875 17.546875 -6.359375 C 18.515625 -7.554688 19 -9.363281 19 -11.78125 C 19 -14.207031 18.515625 -16.019531 17.546875 -17.21875 C 16.578125 -18.414062 15.253906 -19.015625 13.578125 -19.015625 C 11.835938 -19.015625 10.507812 -18.429688 9.59375 -17.265625 C 8.675781 -16.109375 8.21875 -14.28125 8.21875 -11.78125 C 8.21875 -9.300781 8.675781 -7.476562 9.59375 -6.3125 C 10.507812 -5.15625 11.835938 -4.578125 13.578125 -4.578125 Z M 13.578125 -4.578125 "/></g></g></g><g fill="#ffffff" fill-opacity="1"><g transform="translate(85.071819, 142.321663)"><g><path d="M 9.203125 0.453125 C 7.691406 0.453125 6.378906 0.175781 5.265625 -0.375 C 4.148438 -0.9375 3.289062 -1.753906 2.6875 -2.828125 C 2.09375 -3.910156 1.796875 -5.207031 1.796875 -6.71875 C 1.796875 -8.113281 2.09375 -9.285156 2.6875 -10.234375 C 3.289062 -11.179688 4.21875 -11.957031 5.46875 -12.5625 C 6.726562 -13.175781 8.367188 -13.644531 10.390625 -13.96875 C 11.804688 -14.195312 12.878906 -14.445312 13.609375 -14.71875 C 14.347656 -14.988281 14.84375 -15.296875 15.09375 -15.640625 C 15.351562 -15.984375 15.484375 -16.414062 15.484375 -16.9375 C 15.484375 -17.695312 15.21875 -18.273438 14.6875 -18.671875 C 14.164062 -19.078125 13.289062 -19.28125 12.0625 -19.28125 C 10.75 -19.28125 9.5 -18.984375 8.3125 -18.390625 C 7.132812 -17.804688 6.109375 -17.039062 5.234375 -16.09375 L 4.8125 -16.09375 L 2.328125 -19.828125 C 3.523438 -21.160156 4.988281 -22.195312 6.71875 -22.9375 C 8.445312 -23.675781 10.328125 -24.046875 12.359375 -24.046875 C 15.484375 -24.046875 17.742188 -23.378906 19.140625 -22.046875 C 20.546875 -20.722656 21.25 -18.84375 21.25 -16.40625 L 21.25 -6.15625 C 21.25 -5.101562 21.710938 -4.578125 22.640625 -4.578125 C 22.992188 -4.578125 23.34375 -4.640625 23.6875 -4.765625 L 23.984375 -4.6875 L 24.40625 -0.5625 C 24.082031 -0.34375 23.625 -0.164062 23.03125 -0.03125 C 22.445312 0.101562 21.804688 0.171875 21.109375 0.171875 C 19.703125 0.171875 18.601562 -0.0976562 17.8125 -0.640625 C 17.019531 -1.179688 16.453125 -2.03125 16.109375 -3.1875 L 15.65625 -3.234375 C 14.5 -0.773438 12.347656 0.453125 9.203125 0.453125 Z M 11.078125 -3.984375 C 12.453125 -3.984375 13.546875 -4.441406 14.359375 -5.359375 C 15.179688 -6.273438 15.59375 -7.554688 15.59375 -9.203125 L 15.59375 -11.59375 L 15.1875 -11.6875 C 14.832031 -11.394531 14.363281 -11.148438 13.78125 -10.953125 C 13.207031 -10.765625 12.378906 -10.578125 11.296875 -10.390625 C 10.015625 -10.179688 9.09375 -9.816406 8.53125 -9.296875 C 7.96875 -8.773438 7.6875 -8.035156 7.6875 -7.078125 C 7.6875 -6.066406 7.984375 -5.296875 8.578125 -4.765625 C 9.179688 -4.242188 10.015625 -3.984375 11.078125 -3.984375 Z M 11.078125 -3.984375 "/></g></g></g><g fill="#ffffff" fill-opacity="1"><g transform="translate(114.328667, 142.321663)"><g><path d="M 16.28125 -5.625 L 17.8125 -1.234375 C 17.175781 -0.710938 16.375 -0.300781 15.40625 0 C 14.4375 0.300781 13.335938 0.453125 12.109375 0.453125 C 9.554688 0.453125 7.613281 -0.238281 6.28125 -1.625 C 4.957031 -3.019531 4.296875 -5.046875 4.296875 -7.703125 L 4.296875 -18.90625 L 0.703125 -18.90625 L 0.703125 -23.625 L 4.296875 -23.625 L 4.296875 -28.21875 L 10.21875 -29.1875 L 10.21875 -23.625 L 16.921875 -23.625 L 16.921875 -18.90625 L 10.21875 -18.90625 L 10.21875 -8.125 C 10.21875 -6.957031 10.460938 -6.101562 10.953125 -5.5625 C 11.441406 -5.03125 12.148438 -4.765625 13.078125 -4.765625 C 14.128906 -4.765625 15.046875 -5.050781 15.828125 -5.625 Z M 16.28125 -5.625 "/></g></g></g><g fill="#ffffff" fill-opacity="1"><g transform="translate(137.040434, 142.321663)"><g><path d="M 9.203125 0.453125 C 7.691406 0.453125 6.378906 0.175781 5.265625 -0.375 C 4.148438 -0.9375 3.289062 -1.753906 2.6875 -2.828125 C 2.09375 -3.910156 1.796875 -5.207031 1.796875 -6.71875 C 1.796875 -8.113281 2.09375 -9.285156 2.6875 -10.234375 C 3.289062 -11.179688 4.21875 -11.957031 5.46875 -12.5625 C 6.726562 -13.175781 8.367188 -13.644531 10.390625 -13.96875 C 11.804688 -14.195312 12.878906 -14.445312 13.609375 -14.71875 C 14.347656 -14.988281 14.84375 -15.296875 15.09375 -15.640625 C 15.351562 -15.984375 15.484375 -16.414062 15.484375 -16.9375 C 15.484375 -17.695312 15.21875 -18.273438 14.6875 -18.671875 C 14.164062 -19.078125 13.289062 -19.28125 12.0625 -19.28125 C 10.75 -19.28125 9.5 -18.984375 8.3125 -18.390625 C 7.132812 -17.804688 6.109375 -17.039062 5.234375 -16.09375 L 4.8125 -16.09375 L 2.328125 -19.828125 C 3.523438 -21.160156 4.988281 -22.195312 6.71875 -22.9375 C 8.445312 -23.675781 10.328125 -24.046875 12.359375 -24.046875 C 15.484375 -24.046875 17.742188 -23.378906 19.140625 -22.046875 C 20.546875 -20.722656 21.25 -18.84375 21.25 -16.40625 L 21.25 -6.15625 C 21.25 -5.101562 21.710938 -4.578125 22.640625 -4.578125 C 22.992188 -4.578125 23.34375 -4.640625 23.6875 -4.765625 L 23.984375 -4.6875 L 24.40625 -0.5625 C 24.082031 -0.34375 23.625 -0.164062 23.03125 -0.03125 C 22.445312 0.101562 21.804688 0.171875 21.109375 0.171875 C 19.703125 0.171875 18.601562 -0.0976562 17.8125 -0.640625 C 17.019531 -1.179688 16.453125 -2.03125 16.109375 -3.1875 L 15.65625 -3.234375 C 14.5 -0.773438 12.347656 0.453125 9.203125 0.453125 Z M 11.078125 -3.984375 C 12.453125 -3.984375 13.546875 -4.441406 14.359375 -5.359375 C 15.179688 -6.273438 15.59375 -7.554688 15.59375 -9.203125 L 15.59375 -11.59375 L 15.1875 -11.6875 C 14.832031 -11.394531 14.363281 -11.148438 13.78125 -10.953125 C 13.207031 -10.765625 12.378906 -10.578125 11.296875 -10.390625 C 10.015625 -10.179688 9.09375 -9.816406 8.53125 -9.296875 C 7.96875 -8.773438 7.6875 -8.035156 7.6875 -7.078125 C 7.6875 -6.066406 7.984375 -5.296875 8.578125 -4.765625 C 9.179688 -4.242188 10.015625 -3.984375 11.078125 -3.984375 Z M 11.078125 -3.984375 "/></g></g></g><g fill="#ffffff" fill-opacity="1"><g transform="translate(166.306982, 142.321663)"><g><path d="M 12.234375 0.453125 C 10.335938 0.453125 8.664062 0 7.21875 -0.90625 C 5.769531 -1.8125 4.632812 -3.175781 3.8125 -5 C 3 -6.832031 2.59375 -9.09375 2.59375 -11.78125 C 2.59375 -14.476562 3.019531 -16.742188 3.875 -18.578125 C 4.726562 -20.410156 5.90625 -21.78125 7.40625 -22.6875 C 8.914062 -23.59375 10.660156 -24.046875 12.640625 -24.046875 C 14.210938 -24.046875 15.625 -23.75 16.875 -23.15625 C 18.132812 -22.5625 19.210938 -21.585938 20.109375 -20.234375 L 20.5625 -20.328125 L 20.5625 -33.078125 L 24.046875 -33.078125 L 24.046875 0 L 20.5625 0 L 20.5625 -3.4375 L 20.109375 -3.53125 C 19.335938 -2.363281 18.289062 -1.40625 16.96875 -0.65625 C 15.65625 0.0820312 14.078125 0.453125 12.234375 0.453125 Z M 13.328125 -2.671875 C 15.523438 -2.671875 17.28125 -3.421875 18.59375 -4.921875 C 19.90625 -6.429688 20.5625 -8.71875 20.5625 -11.78125 C 20.5625 -14.863281 19.90625 -17.15625 18.59375 -18.65625 C 17.28125 -20.164062 15.523438 -20.921875 13.328125 -20.921875 C 11.054688 -20.921875 9.304688 -20.1875 8.078125 -18.71875 C 6.859375 -17.25 6.25 -14.9375 6.25 -11.78125 C 6.25 -5.707031 8.609375 -2.671875 13.328125 -2.671875 Z M 13.328125 -2.671875 "/></g></g></g><g fill="#ffffff" fill-opacity="1"><g transform="translate(198.857758, 142.321663)"><g><path d="M 4.109375 0 L 4.109375 -23.59375 L 7.421875 -23.59375 L 7.421875 -19.890625 L 7.875 -19.78125 C 8.96875 -22.46875 11.035156 -23.8125 14.078125 -23.8125 C 15.691406 -23.8125 16.894531 -23.519531 17.6875 -22.9375 L 16.796875 -19.984375 L 16.359375 -19.890625 C 15.484375 -20.335938 14.515625 -20.5625 13.453125 -20.5625 C 11.566406 -20.5625 10.117188 -19.851562 9.109375 -18.4375 C 8.097656 -17.03125 7.59375 -14.742188 7.59375 -11.578125 L 7.59375 0 Z M 4.109375 0 "/></g></g></g><g fill="#ffffff" fill-opacity="1"><g transform="translate(221.462579, 142.321663)"><g><path d="M 5.859375 -28.15625 C 5.117188 -28.15625 4.515625 -28.382812 4.046875 -28.84375 C 3.585938 -29.3125 3.359375 -29.898438 3.359375 -30.609375 C 3.359375 -31.328125 3.585938 -31.914062 4.046875 -32.375 C 4.515625 -32.84375 5.117188 -33.078125 5.859375 -33.078125 C 6.597656 -33.078125 7.195312 -32.84375 7.65625 -32.375 C 8.125 -31.914062 8.359375 -31.328125 8.359375 -30.609375 C 8.359375 -29.898438 8.125 -29.3125 7.65625 -28.84375 C 7.195312 -28.382812 6.597656 -28.15625 5.859375 -28.15625 Z M 4.109375 0 L 4.109375 -23.59375 L 7.59375 -23.59375 L 7.59375 0 Z M 4.109375 0 "/></g></g></g><g fill="#ffffff" fill-opacity="1"><g transform="translate(237.543719, 142.321663)"><g><path d="M 14.9375 0 L 10.140625 0 L 1.15625 -23.59375 L 4.921875 -23.59375 L 12.34375 -3.984375 L 12.828125 -3.984375 L 20.1875 -23.59375 L 23.875 -23.59375 Z M 14.9375 0 "/></g></g></g><g fill="#ffffff" fill-opacity="1"><g transform="translate(266.928902, 142.321663)"><g><path d="M 22.484375 -11 L 6.265625 -11 C 6.367188 -8.132812 7.054688 -6.03125 8.328125 -4.6875 C 9.609375 -3.34375 11.359375 -2.671875 13.578125 -2.671875 C 15.265625 -2.671875 16.617188 -2.96875 17.640625 -3.5625 C 18.671875 -4.164062 19.476562 -5.109375 20.0625 -6.390625 L 20.515625 -6.390625 L 22.78125 -5.046875 C 22.09375 -3.335938 21 -1.992188 19.5 -1.015625 C 18 -0.0351562 16.023438 0.453125 13.578125 0.453125 C 11.296875 0.453125 9.332031 0.00390625 7.6875 -0.890625 C 6.050781 -1.796875 4.789062 -3.160156 3.90625 -4.984375 C 3.03125 -6.804688 2.59375 -9.070312 2.59375 -11.78125 C 2.59375 -14.46875 3.054688 -16.726562 3.984375 -18.5625 C 4.921875 -20.40625 6.195312 -21.78125 7.8125 -22.6875 C 9.4375 -23.59375 11.289062 -24.046875 13.375 -24.046875 C 16.394531 -24.046875 18.753906 -23.191406 20.453125 -21.484375 C 22.148438 -19.785156 23.003906 -17.257812 23.015625 -13.90625 C 23.015625 -12.59375 22.988281 -11.707031 22.9375 -11.25 Z M 19.578125 -13.90625 C 19.515625 -16.414062 18.957031 -18.238281 17.90625 -19.375 C 16.851562 -20.519531 15.34375 -21.09375 13.375 -21.09375 C 11.300781 -21.09375 9.675781 -20.519531 8.5 -19.375 C 7.320312 -18.226562 6.609375 -16.40625 6.359375 -13.90625 Z M 19.578125 -13.90625 "/></g></g></g><g fill="#ffffff" fill-opacity="1"><g transform="translate(296.463799, 142.321663)"><g><path d="M 4.109375 0 L 4.109375 -23.59375 L 7.421875 -23.59375 L 7.421875 -19.890625 L 7.875 -19.78125 C 8.65625 -21.164062 9.65625 -22.222656 10.875 -22.953125 C 12.09375 -23.679688 13.582031 -24.046875 15.34375 -24.046875 C 18.175781 -24.046875 20.226562 -23.320312 21.5 -21.875 C 22.78125 -20.425781 23.421875 -18.195312 23.421875 -15.1875 L 23.421875 0 L 19.9375 0 L 19.9375 -15.109375 C 19.9375 -16.535156 19.753906 -17.675781 19.390625 -18.53125 C 19.023438 -19.394531 18.460938 -20.019531 17.703125 -20.40625 C 16.941406 -20.800781 15.941406 -21 14.703125 -21 C 12.578125 -21 10.859375 -20.296875 9.546875 -18.890625 C 8.242188 -17.492188 7.59375 -15.234375 7.59375 -12.109375 L 7.59375 0 Z M 4.109375 0 "/></g></g></g><g fill="#000000" fill-opacity="1"><g transform="translate(151.822124, 65.757752)"><g><path d="M 16.578125 -33.859375 C 22.078125 -33.859375 26.273438 -32.4375 29.171875 -29.59375 C 32.066406 -26.757812 33.515625 -22.539062 33.515625 -16.9375 C 33.515625 -11.34375 32.066406 -7.117188 29.171875 -4.265625 C 26.273438 -1.421875 22.078125 0 16.578125 0 L 4.40625 0 L 4.40625 -33.859375 Z M 16.1875 -5.625 C 19.675781 -5.625 22.285156 -6.515625 24.015625 -8.296875 C 25.742188 -10.085938 26.609375 -12.96875 26.609375 -16.9375 C 26.609375 -20.90625 25.742188 -23.78125 24.015625 -25.5625 C 22.285156 -27.34375 19.675781 -28.234375 16.1875 -28.234375 L 11.09375 -28.234375 L 11.09375 -5.625 Z M 16.1875 -5.625 "/></g></g></g><g fill="#000000" fill-opacity="1"><g transform="translate(188.021277, 65.757752)"><g><path d="M 16.578125 -33.859375 C 22.078125 -33.859375 26.273438 -32.4375 29.171875 -29.59375 C 32.066406 -26.757812 33.515625 -22.539062 33.515625 -16.9375 C 33.515625 -11.34375 32.066406 -7.117188 29.171875 -4.265625 C 26.273438 -1.421875 22.078125 0 16.578125 0 L 4.40625 0 L 4.40625 -33.859375 Z M 16.1875 -5.625 C 19.675781 -5.625 22.285156 -6.515625 24.015625 -8.296875 C 25.742188 -10.085938 26.609375 -12.96875 26.609375 -16.9375 C 26.609375 -20.90625 25.742188 -23.78125 24.015625 -25.5625 C 22.285156 -27.34375 19.675781 -28.234375 16.1875 -28.234375 L 11.09375 -28.234375 L 11.09375 -5.625 Z M 16.1875 -5.625 "/></g></g></g><g fill="#ffffff" fill-opacity="1"><g transform="translate(133.190521, 179.789311)"><g><path d="M 7.453125 0.25 C 6.304688 0.25 5.273438 -0.0078125 4.359375 -0.53125 C 3.453125 -1.050781 2.734375 -1.816406 2.203125 -2.828125 C 1.679688 -3.847656 1.421875 -5.066406 1.421875 -6.484375 C 1.421875 -7.898438 1.679688 -9.113281 2.203125 -10.125 C 2.734375 -11.144531 3.453125 -11.914062 4.359375 -12.4375 C 5.273438 -12.957031 6.304688 -13.21875 7.453125 -13.21875 C 8.816406 -13.21875 9.90625 -12.957031 10.71875 -12.4375 C 11.53125 -11.925781 12.117188 -11.238281 12.484375 -10.375 L 11.171875 -9.4375 L 10.9375 -9.4375 C 10.582031 -10.144531 10.128906 -10.664062 9.578125 -11 C 9.023438 -11.332031 8.316406 -11.5 7.453125 -11.5 C 6.648438 -11.5 5.945312 -11.3125 5.34375 -10.9375 C 4.738281 -10.5625 4.269531 -10 3.9375 -9.25 C 3.601562 -8.5 3.4375 -7.578125 3.4375 -6.484375 C 3.4375 -5.398438 3.601562 -4.484375 3.9375 -3.734375 C 4.28125 -2.984375 4.75 -2.414062 5.34375 -2.03125 C 5.945312 -1.65625 6.648438 -1.46875 7.453125 -1.46875 C 8.347656 -1.46875 9.09375 -1.671875 9.6875 -2.078125 C 10.28125 -2.484375 10.742188 -3.128906 11.078125 -4.015625 L 11.328125 -4.015625 L 12.59375 -3.265625 C 12.25 -2.179688 11.644531 -1.320312 10.78125 -0.6875 C 9.914062 -0.0625 8.804688 0.25 7.453125 0.25 Z M 7.453125 0.25 "/></g></g></g><g fill="#ffffff" fill-opacity="1"><g transform="translate(147.769676, 179.789311)"><g><path d="M 7.453125 0.25 C 6.222656 0.25 5.15625 -0.0078125 4.25 -0.53125 C 3.34375 -1.050781 2.644531 -1.8125 2.15625 -2.8125 C 1.664062 -3.820312 1.421875 -5.046875 1.421875 -6.484375 C 1.421875 -7.921875 1.664062 -9.144531 2.15625 -10.15625 C 2.644531 -11.164062 3.34375 -11.925781 4.25 -12.4375 C 5.15625 -12.957031 6.222656 -13.21875 7.453125 -13.21875 C 8.671875 -13.21875 9.734375 -12.957031 10.640625 -12.4375 C 11.546875 -11.925781 12.242188 -11.164062 12.734375 -10.15625 C 13.222656 -9.144531 13.46875 -7.921875 13.46875 -6.484375 C 13.46875 -5.046875 13.222656 -3.820312 12.734375 -2.8125 C 12.242188 -1.8125 11.546875 -1.050781 10.640625 -0.53125 C 9.734375 -0.0078125 8.671875 0.25 7.453125 0.25 Z M 7.453125 -1.46875 C 8.742188 -1.46875 9.734375 -1.875 10.421875 -2.6875 C 11.109375 -3.507812 11.453125 -4.773438 11.453125 -6.484375 C 11.453125 -8.203125 11.109375 -9.46875 10.421875 -10.28125 C 9.734375 -11.09375 8.742188 -11.5 7.453125 -11.5 C 6.148438 -11.5 5.15625 -11.085938 4.46875 -10.265625 C 3.78125 -9.453125 3.4375 -8.191406 3.4375 -6.484375 C 3.4375 -4.773438 3.78125 -3.507812 4.46875 -2.6875 C 5.15625 -1.875 6.148438 -1.46875 7.453125 -1.46875 Z M 7.453125 -1.46875 "/></g></g></g><g fill="#ffffff" fill-opacity="1"><g transform="translate(163.866227, 179.789311)"><g><path d="M 2.265625 0 L 2.265625 -12.96875 L 4.078125 -12.96875 L 4.078125 -11.0625 L 4.328125 -11.015625 C 4.765625 -11.742188 5.296875 -12.289062 5.921875 -12.65625 C 6.546875 -13.03125 7.296875 -13.21875 8.171875 -13.21875 C 9.171875 -13.21875 9.941406 -13.023438 10.484375 -12.640625 C 11.035156 -12.265625 11.46875 -11.65625 11.78125 -10.8125 L 12.015625 -10.8125 C 12.460938 -11.601562 13.015625 -12.203125 13.671875 -12.609375 C 14.328125 -13.015625 15.132812 -13.21875 16.09375 -13.21875 C 17.425781 -13.21875 18.421875 -12.859375 19.078125 -12.140625 C 19.734375 -11.421875 20.0625 -10.320312 20.0625 -8.84375 L 20.0625 0 L 18.140625 0 L 18.140625 -8.796875 C 18.140625 -9.742188 17.941406 -10.4375 17.546875 -10.875 C 17.148438 -11.320312 16.515625 -11.546875 15.640625 -11.546875 C 14.597656 -11.546875 13.75 -11.171875 13.09375 -10.421875 C 12.445312 -9.671875 12.125 -8.429688 12.125 -6.703125 L 12.125 0 L 10.203125 0 L 10.203125 -8.796875 C 10.203125 -9.742188 10.003906 -10.4375 9.609375 -10.875 C 9.210938 -11.320312 8.570312 -11.546875 7.6875 -11.546875 C 6.65625 -11.546875 5.8125 -11.179688 5.15625 -10.453125 C 4.5 -9.722656 4.171875 -8.539062 4.171875 -6.90625 L 4.171875 0 Z M 2.265625 0 "/></g></g></g><g fill="#ffffff" fill-opacity="1"><g transform="translate(187.185137, 179.789311)"><g><path d="M 2.265625 5.265625 L 2.265625 -12.96875 L 4.171875 -12.96875 L 4.171875 -11.03125 L 4.421875 -10.984375 C 5.390625 -12.472656 6.804688 -13.21875 8.671875 -13.21875 C 9.753906 -13.21875 10.695312 -12.96875 11.5 -12.46875 C 12.3125 -11.976562 12.941406 -11.226562 13.390625 -10.21875 C 13.835938 -9.21875 14.0625 -7.972656 14.0625 -6.484375 C 14.0625 -5.003906 13.820312 -3.757812 13.34375 -2.75 C 12.875 -1.75 12.222656 -1 11.390625 -0.5 C 10.566406 0 9.613281 0.25 8.53125 0.25 C 7.65625 0.25 6.875 0.0976562 6.1875 -0.203125 C 5.507812 -0.515625 4.921875 -1.019531 4.421875 -1.71875 L 4.171875 -1.671875 L 4.171875 5.265625 Z M 8.109375 -1.46875 C 10.734375 -1.46875 12.046875 -3.140625 12.046875 -6.484375 C 12.046875 -9.828125 10.734375 -11.5 8.109375 -11.5 C 7.335938 -11.5 6.65625 -11.320312 6.0625 -10.96875 C 5.476562 -10.625 5.015625 -10.078125 4.671875 -9.328125 C 4.335938 -8.578125 4.171875 -7.628906 4.171875 -6.484375 C 4.171875 -5.347656 4.335938 -4.40625 4.671875 -3.65625 C 5.015625 -2.90625 5.476562 -2.351562 6.0625 -2 C 6.65625 -1.644531 7.335938 -1.46875 8.109375 -1.46875 Z M 8.109375 -1.46875 "/></g></g></g><g fill="#ffffff" fill-opacity="1"><g transform="translate(203.869828, 179.789311)"><g><path d="M 5.359375 0.25 C 4.078125 0.25 3.078125 -0.0820312 2.359375 -0.75 C 1.640625 -1.414062 1.28125 -2.367188 1.28125 -3.609375 C 1.28125 -4.378906 1.4375 -5.03125 1.75 -5.5625 C 2.070312 -6.09375 2.566406 -6.523438 3.234375 -6.859375 C 3.898438 -7.191406 4.769531 -7.445312 5.84375 -7.625 C 6.789062 -7.78125 7.507812 -7.957031 8 -8.15625 C 8.488281 -8.351562 8.816406 -8.570312 8.984375 -8.8125 C 9.148438 -9.050781 9.234375 -9.359375 9.234375 -9.734375 C 9.234375 -10.316406 9.03125 -10.765625 8.625 -11.078125 C 8.21875 -11.390625 7.570312 -11.546875 6.6875 -11.546875 C 5.84375 -11.546875 5.117188 -11.382812 4.515625 -11.0625 C 3.921875 -10.738281 3.375 -10.253906 2.875 -9.609375 L 2.640625 -9.609375 L 1.6875 -10.9375 C 2.238281 -11.632812 2.9375 -12.1875 3.78125 -12.59375 C 4.632812 -13.007812 5.601562 -13.21875 6.6875 -13.21875 C 8.207031 -13.21875 9.332031 -12.882812 10.0625 -12.21875 C 10.789062 -11.550781 11.15625 -10.625 11.15625 -9.4375 L 11.15625 -2.546875 C 11.15625 -1.828125 11.460938 -1.46875 12.078125 -1.46875 C 12.273438 -1.46875 12.46875 -1.503906 12.65625 -1.578125 L 12.828125 -1.53125 L 13.046875 -0.203125 C 12.898438 -0.109375 12.710938 -0.0351562 12.484375 0.015625 C 12.253906 0.0664062 12.019531 0.09375 11.78125 0.09375 C 11.0625 0.09375 10.519531 -0.0625 10.15625 -0.375 C 9.789062 -0.6875 9.554688 -1.148438 9.453125 -1.765625 L 9.21875 -1.78125 C 8.84375 -1.101562 8.34375 -0.59375 7.71875 -0.25 C 7.09375 0.0820312 6.304688 0.25 5.359375 0.25 Z M 5.78125 -1.28125 C 6.5 -1.28125 7.125 -1.445312 7.65625 -1.78125 C 8.1875 -2.113281 8.59375 -2.582031 8.875 -3.1875 C 9.15625 -3.789062 9.296875 -4.488281 9.296875 -5.28125 L 9.296875 -6.921875 L 9.078125 -6.96875 C 8.785156 -6.769531 8.429688 -6.601562 8.015625 -6.46875 C 7.597656 -6.332031 7.015625 -6.207031 6.265625 -6.09375 C 5.515625 -5.988281 4.914062 -5.832031 4.46875 -5.625 C 4.03125 -5.414062 3.71875 -5.144531 3.53125 -4.8125 C 3.34375 -4.488281 3.25 -4.085938 3.25 -3.609375 C 3.25 -2.847656 3.472656 -2.269531 3.921875 -1.875 C 4.367188 -1.476562 4.988281 -1.28125 5.78125 -1.28125 Z M 5.78125 -1.28125 "/></g></g></g><g fill="#ffffff" fill-opacity="1"><g transform="translate(218.496039, 179.789311)"><g><path d="M 5.921875 0.25 C 5.097656 0.25 4.335938 0.140625 3.640625 -0.078125 C 2.953125 -0.296875 2.367188 -0.59375 1.890625 -0.96875 C 1.410156 -1.34375 1.070312 -1.765625 0.875 -2.234375 L 2.015625 -3.40625 L 2.265625 -3.40625 C 2.679688 -2.769531 3.1875 -2.285156 3.78125 -1.953125 C 4.382812 -1.628906 5.097656 -1.46875 5.921875 -1.46875 C 6.878906 -1.46875 7.601562 -1.65625 8.09375 -2.03125 C 8.59375 -2.40625 8.84375 -2.925781 8.84375 -3.59375 C 8.84375 -4.101562 8.691406 -4.523438 8.390625 -4.859375 C 8.085938 -5.191406 7.597656 -5.4375 6.921875 -5.59375 L 4.734375 -6.140625 C 3.566406 -6.421875 2.710938 -6.867188 2.171875 -7.484375 C 1.640625 -8.097656 1.375 -8.851562 1.375 -9.75 C 1.375 -10.457031 1.550781 -11.070312 1.90625 -11.59375 C 2.269531 -12.113281 2.789062 -12.515625 3.46875 -12.796875 C 4.15625 -13.078125 4.960938 -13.21875 5.890625 -13.21875 C 7.085938 -13.21875 8.023438 -13.050781 8.703125 -12.71875 C 9.390625 -12.382812 9.925781 -11.921875 10.3125 -11.328125 L 9.234375 -10.265625 L 9 -10.265625 C 8.582031 -10.742188 8.128906 -11.085938 7.640625 -11.296875 C 7.148438 -11.515625 6.566406 -11.625 5.890625 -11.625 C 5.035156 -11.625 4.378906 -11.46875 3.921875 -11.15625 C 3.472656 -10.851562 3.25 -10.410156 3.25 -9.828125 C 3.25 -9.304688 3.410156 -8.882812 3.734375 -8.5625 C 4.054688 -8.238281 4.613281 -7.976562 5.40625 -7.78125 L 7.5625 -7.265625 C 8.695312 -7.003906 9.515625 -6.5625 10.015625 -5.9375 C 10.515625 -5.320312 10.765625 -4.546875 10.765625 -3.609375 C 10.765625 -2.847656 10.582031 -2.175781 10.21875 -1.59375 C 9.863281 -1.019531 9.320312 -0.566406 8.59375 -0.234375 C 7.863281 0.0859375 6.972656 0.25 5.921875 0.25 Z M 5.921875 0.25 "/></g></g></g><g fill="#ffffff" fill-opacity="1"><g transform="translate(231.698937, 179.789311)"><g><path d="M 5.921875 0.25 C 5.097656 0.25 4.335938 0.140625 3.640625 -0.078125 C 2.953125 -0.296875 2.367188 -0.59375 1.890625 -0.96875 C 1.410156 -1.34375 1.070312 -1.765625 0.875 -2.234375 L 2.015625 -3.40625 L 2.265625 -3.40625 C 2.679688 -2.769531 3.1875 -2.285156 3.78125 -1.953125 C 4.382812 -1.628906 5.097656 -1.46875 5.921875 -1.46875 C 6.878906 -1.46875 7.601562 -1.65625 8.09375 -2.03125 C 8.59375 -2.40625 8.84375 -2.925781 8.84375 -3.59375 C 8.84375 -4.101562 8.691406 -4.523438 8.390625 -4.859375 C 8.085938 -5.191406 7.597656 -5.4375 6.921875 -5.59375 L 4.734375 -6.140625 C 3.566406 -6.421875 2.710938 -6.867188 2.171875 -7.484375 C 1.640625 -8.097656 1.375 -8.851562 1.375 -9.75 C 1.375 -10.457031 1.550781 -11.070312 1.90625 -11.59375 C 2.269531 -12.113281 2.789062 -12.515625 3.46875 -12.796875 C 4.15625 -13.078125 4.960938 -13.21875 5.890625 -13.21875 C 7.085938 -13.21875 8.023438 -13.050781 8.703125 -12.71875 C 9.390625 -12.382812 9.925781 -11.921875 10.3125 -11.328125 L 9.234375 -10.265625 L 9 -10.265625 C 8.582031 -10.742188 8.128906 -11.085938 7.640625 -11.296875 C 7.148438 -11.515625 6.566406 -11.625 5.890625 -11.625 C 5.035156 -11.625 4.378906 -11.46875 3.921875 -11.15625 C 3.472656 -10.851562 3.25 -10.410156 3.25 -9.828125 C 3.25 -9.304688 3.410156 -8.882812 3.734375 -8.5625 C 4.054688 -8.238281 4.613281 -7.976562 5.40625 -7.78125 L 7.5625 -7.265625 C 8.695312 -7.003906 9.515625 -6.5625 10.015625 -5.9375 C 10.515625 -5.320312 10.765625 -4.546875 10.765625 -3.609375 C 10.765625 -2.847656 10.582031 -2.175781 10.21875 -1.59375 C 9.863281 -1.019531 9.320312 -0.566406 8.59375 -0.234375 C 7.863281 0.0859375 6.972656 0.25 5.921875 0.25 Z M 5.921875 0.25 "/></g></g></g><path stroke-linecap="butt" transform="matrix(0.748005, 0.000000000000000485, -0.000000000000000485, 0.748005, 59.278164, 173.724721)" fill="none" stroke-linejoin="miter" d="M -0.00109722 0.498573 L 87.580798 0.498573 " stroke="#ffffff" stroke-width="1" stroke-opacity="1" stroke-miterlimit="4"/><path stroke-linecap="butt" transform="matrix(0.748005, 0.000000000000000485, -0.000000000000000485, 0.748005, 251.266769, 173.080967)" fill="none" stroke-linejoin="miter" d="M -0.00152887 0.497533 L 87.580366 0.497533 " stroke="#ffffff" stroke-width="1" stroke-opacity="1" stroke-miterlimit="4"/></svg>