<svg xmlns="http://www.w3.org/2000/svg" xmlns:xlink="http://www.w3.org/1999/xlink" width="500" zoomAndPan="magnify" viewBox="0 0 375 187.499995" height="250" preserveAspectRatio="xMidYMid meet" version="1.0"><defs><g/><clipPath id="48aa68ac70"><path d="M 142.222656 3.007812 L 232.777344 3.007812 L 232.777344 93.566406 L 142.222656 93.566406 Z M 142.222656 3.007812 " clip-rule="nonzero"/></clipPath><clipPath id="ea8fceec90"><path d="M 187.5 3.007812 C 162.492188 3.007812 142.222656 23.28125 142.222656 48.289062 C 142.222656 73.292969 162.492188 93.566406 187.5 93.566406 C 212.507812 93.566406 232.777344 73.292969 232.777344 48.289062 C 232.777344 23.28125 212.507812 3.007812 187.5 3.007812 Z M 187.5 3.007812 " clip-rule="nonzero"/></clipPath></defs><g clip-path="url(#48aa68ac70)"><g clip-path="url(#ea8fceec90)"><path fill="#000000" d="M 142.222656 3.007812 L 232.777344 3.007812 L 232.777344 93.566406 L 142.222656 93.566406 Z M 142.222656 3.007812 " fill-opacity="1" fill-rule="nonzero"/></g></g><g fill="#000000" fill-opacity="1"><g transform="translate(53.021042, 141.566885)"><g><path d="M 11.5625 0.453125 C 9.707031 0.453125 8.066406 0.00390625 6.640625 -0.890625 C 5.222656 -1.796875 4.109375 -3.15625 3.296875 -4.96875 C 2.492188 -6.789062 2.09375 -9.03125 2.09375 -11.6875 C 2.09375 -14.351562 2.503906 -16.59375 3.328125 -18.40625 C 4.160156 -20.226562 5.304688 -21.585938 6.765625 -22.484375 C 8.234375 -23.390625 9.929688 -23.84375 11.859375 -23.84375 C 13.316406 -23.84375 14.578125 -23.585938 15.640625 -23.078125 C 16.710938 -22.578125 17.613281 -21.800781 18.34375 -20.75 L 18.796875 -20.84375 L 18.796875 -32.796875 L 24.671875 -32.796875 L 24.671875 0 L 18.796875 0 L 18.796875 -3.03125 L 18.34375 -3.125 C 17.695312 -2.019531 16.804688 -1.144531 15.671875 -0.5 C 14.546875 0.132812 13.175781 0.453125 11.5625 0.453125 Z M 13.46875 -4.53125 C 15.125 -4.53125 16.429688 -5.117188 17.390625 -6.296875 C 18.347656 -7.484375 18.828125 -9.28125 18.828125 -11.6875 C 18.828125 -14.09375 18.347656 -15.890625 17.390625 -17.078125 C 16.429688 -18.265625 15.125 -18.859375 13.46875 -18.859375 C 11.738281 -18.859375 10.414062 -18.28125 9.5 -17.125 C 8.59375 -15.96875 8.140625 -14.15625 8.140625 -11.6875 C 8.140625 -9.226562 8.59375 -7.421875 9.5 -6.265625 C 10.414062 -5.109375 11.738281 -4.53125 13.46875 -4.53125 Z M 13.46875 -4.53125 "/></g></g></g><g fill="#000000" fill-opacity="1"><g transform="translate(85.405563, 141.566885)"><g><path d="M 9.125 0.453125 C 7.625 0.453125 6.320312 0.175781 5.21875 -0.375 C 4.113281 -0.925781 3.265625 -1.734375 2.671875 -2.796875 C 2.078125 -3.867188 1.78125 -5.15625 1.78125 -6.65625 C 1.78125 -8.039062 2.078125 -9.203125 2.671875 -10.140625 C 3.265625 -11.085938 4.179688 -11.859375 5.421875 -12.453125 C 6.671875 -13.054688 8.300781 -13.519531 10.3125 -13.84375 C 11.707031 -14.070312 12.769531 -14.320312 13.5 -14.59375 C 14.226562 -14.863281 14.71875 -15.164062 14.96875 -15.5 C 15.226562 -15.84375 15.359375 -16.273438 15.359375 -16.796875 C 15.359375 -17.546875 15.09375 -18.117188 14.5625 -18.515625 C 14.039062 -18.910156 13.175781 -19.109375 11.96875 -19.109375 C 10.664062 -19.109375 9.425781 -18.816406 8.25 -18.234375 C 7.070312 -17.660156 6.054688 -16.898438 5.203125 -15.953125 L 4.765625 -15.953125 L 2.3125 -19.65625 C 3.5 -20.976562 4.945312 -22.003906 6.65625 -22.734375 C 8.363281 -23.472656 10.234375 -23.84375 12.265625 -23.84375 C 15.359375 -23.84375 17.597656 -23.179688 18.984375 -21.859375 C 20.367188 -20.546875 21.0625 -18.679688 21.0625 -16.265625 L 21.0625 -6.109375 C 21.0625 -5.054688 21.519531 -4.53125 22.4375 -4.53125 C 22.789062 -4.53125 23.140625 -4.597656 23.484375 -4.734375 L 23.78125 -4.640625 L 24.203125 -0.546875 C 23.878906 -0.335938 23.425781 -0.164062 22.84375 -0.03125 C 22.257812 0.101562 21.625 0.171875 20.9375 0.171875 C 19.53125 0.171875 18.4375 -0.09375 17.65625 -0.625 C 16.875 -1.164062 16.3125 -2.007812 15.96875 -3.15625 L 15.53125 -3.203125 C 14.382812 -0.765625 12.25 0.453125 9.125 0.453125 Z M 10.984375 -3.9375 C 12.335938 -3.9375 13.421875 -4.394531 14.234375 -5.3125 C 15.054688 -6.226562 15.46875 -7.5 15.46875 -9.125 L 15.46875 -11.5 L 15.0625 -11.578125 C 14.707031 -11.296875 14.242188 -11.054688 13.671875 -10.859375 C 13.097656 -10.671875 12.273438 -10.488281 11.203125 -10.3125 C 9.929688 -10.09375 9.015625 -9.722656 8.453125 -9.203125 C 7.890625 -8.691406 7.609375 -7.960938 7.609375 -7.015625 C 7.609375 -6.015625 7.90625 -5.25 8.5 -4.71875 C 9.09375 -4.195312 9.921875 -3.9375 10.984375 -3.9375 Z M 10.984375 -3.9375 "/></g></g></g><g fill="#000000" fill-opacity="1"><g transform="translate(114.417666, 141.566885)"><g><path d="M 16.140625 -5.578125 L 17.671875 -1.234375 C 17.035156 -0.710938 16.234375 -0.300781 15.265625 0 C 14.304688 0.300781 13.21875 0.453125 12 0.453125 C 9.46875 0.453125 7.546875 -0.234375 6.234375 -1.609375 C 4.921875 -2.992188 4.265625 -5.003906 4.265625 -7.640625 L 4.265625 -18.75 L 0.703125 -18.75 L 0.703125 -23.421875 L 4.265625 -23.421875 L 4.265625 -27.96875 L 10.140625 -28.9375 L 10.140625 -23.421875 L 16.78125 -23.421875 L 16.78125 -18.75 L 10.140625 -18.75 L 10.140625 -8.0625 C 10.140625 -6.90625 10.378906 -6.0625 10.859375 -5.53125 C 11.335938 -5 12.035156 -4.734375 12.953125 -4.734375 C 14.003906 -4.734375 14.914062 -5.015625 15.6875 -5.578125 Z M 16.140625 -5.578125 "/></g></g></g><g fill="#000000" fill-opacity="1"><g transform="translate(136.93944, 141.566885)"><g><path d="M 9.125 0.453125 C 7.625 0.453125 6.320312 0.175781 5.21875 -0.375 C 4.113281 -0.925781 3.265625 -1.734375 2.671875 -2.796875 C 2.078125 -3.867188 1.78125 -5.15625 1.78125 -6.65625 C 1.78125 -8.039062 2.078125 -9.203125 2.671875 -10.140625 C 3.265625 -11.085938 4.179688 -11.859375 5.421875 -12.453125 C 6.671875 -13.054688 8.300781 -13.519531 10.3125 -13.84375 C 11.707031 -14.070312 12.769531 -14.320312 13.5 -14.59375 C 14.226562 -14.863281 14.71875 -15.164062 14.96875 -15.5 C 15.226562 -15.84375 15.359375 -16.273438 15.359375 -16.796875 C 15.359375 -17.546875 15.09375 -18.117188 14.5625 -18.515625 C 14.039062 -18.910156 13.175781 -19.109375 11.96875 -19.109375 C 10.664062 -19.109375 9.425781 -18.816406 8.25 -18.234375 C 7.070312 -17.660156 6.054688 -16.898438 5.203125 -15.953125 L 4.765625 -15.953125 L 2.3125 -19.65625 C 3.5 -20.976562 4.945312 -22.003906 6.65625 -22.734375 C 8.363281 -23.472656 10.234375 -23.84375 12.265625 -23.84375 C 15.359375 -23.84375 17.597656 -23.179688 18.984375 -21.859375 C 20.367188 -20.546875 21.0625 -18.679688 21.0625 -16.265625 L 21.0625 -6.109375 C 21.0625 -5.054688 21.519531 -4.53125 22.4375 -4.53125 C 22.789062 -4.53125 23.140625 -4.597656 23.484375 -4.734375 L 23.78125 -4.640625 L 24.203125 -0.546875 C 23.878906 -0.335938 23.425781 -0.164062 22.84375 -0.03125 C 22.257812 0.101562 21.625 0.171875 20.9375 0.171875 C 19.53125 0.171875 18.4375 -0.09375 17.65625 -0.625 C 16.875 -1.164062 16.3125 -2.007812 15.96875 -3.15625 L 15.53125 -3.203125 C 14.382812 -0.765625 12.25 0.453125 9.125 0.453125 Z M 10.984375 -3.9375 C 12.335938 -3.9375 13.421875 -4.394531 14.234375 -5.3125 C 15.054688 -6.226562 15.46875 -7.5 15.46875 -9.125 L 15.46875 -11.5 L 15.0625 -11.578125 C 14.707031 -11.296875 14.242188 -11.054688 13.671875 -10.859375 C 13.097656 -10.671875 12.273438 -10.488281 11.203125 -10.3125 C 9.929688 -10.09375 9.015625 -9.722656 8.453125 -9.203125 C 7.890625 -8.691406 7.609375 -7.960938 7.609375 -7.015625 C 7.609375 -6.015625 7.90625 -5.25 8.5 -4.71875 C 9.09375 -4.195312 9.921875 -3.9375 10.984375 -3.9375 Z M 10.984375 -3.9375 "/></g></g></g><g fill="#000000" fill-opacity="1"><g transform="translate(165.961161, 141.566885)"><g><path d="M 12.125 0.453125 C 10.25 0.453125 8.59375 0.00390625 7.15625 -0.890625 C 5.71875 -1.796875 4.59375 -3.148438 3.78125 -4.953125 C 2.96875 -6.765625 2.5625 -9.007812 2.5625 -11.6875 C 2.5625 -14.351562 2.984375 -16.59375 3.828125 -18.40625 C 4.679688 -20.226562 5.851562 -21.585938 7.34375 -22.484375 C 8.84375 -23.390625 10.570312 -23.84375 12.53125 -23.84375 C 14.09375 -23.84375 15.492188 -23.546875 16.734375 -22.953125 C 17.972656 -22.367188 19.039062 -21.40625 19.9375 -20.0625 L 20.375 -20.15625 L 20.375 -32.796875 L 23.84375 -32.796875 L 23.84375 0 L 20.375 0 L 20.375 -3.421875 L 19.9375 -3.5 C 19.175781 -2.34375 18.140625 -1.394531 16.828125 -0.65625 C 15.523438 0.0820312 13.957031 0.453125 12.125 0.453125 Z M 13.21875 -2.65625 C 15.394531 -2.65625 17.128906 -3.398438 18.421875 -4.890625 C 19.722656 -6.378906 20.375 -8.644531 20.375 -11.6875 C 20.375 -14.738281 19.722656 -17.007812 18.421875 -18.5 C 17.128906 -20 15.394531 -20.75 13.21875 -20.75 C 10.96875 -20.75 9.234375 -20.019531 8.015625 -18.5625 C 6.796875 -17.101562 6.1875 -14.8125 6.1875 -11.6875 C 6.1875 -5.664062 8.53125 -2.65625 13.21875 -2.65625 Z M 13.21875 -2.65625 "/></g></g></g><g fill="#000000" fill-opacity="1"><g transform="translate(198.239636, 141.566885)"><g><path d="M 4.078125 0 L 4.078125 -23.390625 L 7.359375 -23.390625 L 7.359375 -19.71875 L 7.8125 -19.625 C 8.894531 -22.28125 10.941406 -23.609375 13.953125 -23.609375 C 15.554688 -23.609375 16.753906 -23.316406 17.546875 -22.734375 L 16.65625 -19.8125 L 16.21875 -19.71875 C 15.34375 -20.15625 14.382812 -20.375 13.34375 -20.375 C 11.476562 -20.375 10.039062 -19.675781 9.03125 -18.28125 C 8.03125 -16.882812 7.53125 -14.613281 7.53125 -11.46875 L 7.53125 0 Z M 4.078125 0 "/></g></g></g><g fill="#000000" fill-opacity="1"><g transform="translate(220.655359, 141.566885)"><g><path d="M 5.8125 -27.90625 C 5.070312 -27.90625 4.472656 -28.132812 4.015625 -28.59375 C 3.554688 -29.0625 3.328125 -29.644531 3.328125 -30.34375 C 3.328125 -31.050781 3.554688 -31.632812 4.015625 -32.09375 C 4.472656 -32.5625 5.070312 -32.796875 5.8125 -32.796875 C 6.550781 -32.796875 7.148438 -32.5625 7.609375 -32.09375 C 8.066406 -31.632812 8.296875 -31.050781 8.296875 -30.34375 C 8.296875 -29.644531 8.066406 -29.0625 7.609375 -28.59375 C 7.148438 -28.132812 6.550781 -27.90625 5.8125 -27.90625 Z M 4.078125 0 L 4.078125 -23.390625 L 7.53125 -23.390625 L 7.53125 0 Z M 4.078125 0 "/></g></g></g><g fill="#000000" fill-opacity="1"><g transform="translate(236.601973, 141.566885)"><g><path d="M 14.796875 0 L 10.046875 0 L 1.140625 -23.390625 L 4.875 -23.390625 L 12.234375 -3.9375 L 12.71875 -3.9375 L 20.015625 -23.390625 L 23.671875 -23.390625 Z M 14.796875 0 "/></g></g></g><g fill="#000000" fill-opacity="1"><g transform="translate(265.741337, 141.566885)"><g><path d="M 22.296875 -10.90625 L 6.21875 -10.90625 C 6.3125 -8.0625 6.988281 -5.972656 8.25 -4.640625 C 9.519531 -3.316406 11.257812 -2.65625 13.46875 -2.65625 C 15.132812 -2.65625 16.476562 -2.953125 17.5 -3.546875 C 18.519531 -4.140625 19.316406 -5.070312 19.890625 -6.34375 L 20.34375 -6.34375 L 22.59375 -5 C 21.90625 -3.300781 20.816406 -1.96875 19.328125 -1 C 17.835938 -0.03125 15.882812 0.453125 13.46875 0.453125 C 11.207031 0.453125 9.265625 0.00390625 7.640625 -0.890625 C 6.015625 -1.785156 4.757812 -3.132812 3.875 -4.9375 C 3 -6.75 2.5625 -9 2.5625 -11.6875 C 2.5625 -14.34375 3.023438 -16.582031 3.953125 -18.40625 C 4.878906 -20.226562 6.144531 -21.585938 7.75 -22.484375 C 9.351562 -23.390625 11.1875 -23.84375 13.25 -23.84375 C 16.25 -23.84375 18.585938 -22.992188 20.265625 -21.296875 C 21.953125 -19.609375 22.804688 -17.101562 22.828125 -13.78125 C 22.828125 -12.476562 22.796875 -11.601562 22.734375 -11.15625 Z M 19.40625 -13.78125 C 19.351562 -16.269531 18.800781 -18.078125 17.75 -19.203125 C 16.707031 -20.335938 15.207031 -20.90625 13.25 -20.90625 C 11.207031 -20.90625 9.601562 -20.335938 8.4375 -19.203125 C 7.269531 -18.066406 6.554688 -16.257812 6.296875 -13.78125 Z M 19.40625 -13.78125 "/></g></g></g><g fill="#000000" fill-opacity="1"><g transform="translate(295.029162, 141.566885)"><g><path d="M 4.078125 0 L 4.078125 -23.390625 L 7.359375 -23.390625 L 7.359375 -19.71875 L 7.8125 -19.625 C 8.582031 -20.988281 9.570312 -22.03125 10.78125 -22.75 C 11.988281 -23.476562 13.460938 -23.84375 15.203125 -23.84375 C 18.015625 -23.84375 20.050781 -23.125 21.3125 -21.6875 C 22.582031 -20.25 23.21875 -18.039062 23.21875 -15.0625 L 23.21875 0 L 19.765625 0 L 19.765625 -14.96875 C 19.765625 -16.382812 19.582031 -17.519531 19.21875 -18.375 C 18.863281 -19.226562 18.304688 -19.847656 17.546875 -20.234375 C 16.796875 -20.628906 15.804688 -20.828125 14.578125 -20.828125 C 12.460938 -20.828125 10.757812 -20.128906 9.46875 -18.734375 C 8.175781 -17.347656 7.53125 -15.101562 7.53125 -12 L 7.53125 0 Z M 4.078125 0 "/></g></g></g><g fill="#ffffff" fill-opacity="1"><g transform="translate(151.597475, 65.643461)"><g><path d="M 16.4375 -33.578125 C 21.894531 -33.578125 26.054688 -32.164062 28.921875 -29.34375 C 31.796875 -26.53125 33.234375 -22.34375 33.234375 -16.78125 C 33.234375 -11.238281 31.796875 -7.054688 28.921875 -4.234375 C 26.054688 -1.410156 21.894531 0 16.4375 0 L 4.359375 0 L 4.359375 -33.578125 Z M 16.046875 -5.578125 C 19.503906 -5.578125 22.09375 -6.460938 23.8125 -8.234375 C 25.53125 -10.003906 26.390625 -12.851562 26.390625 -16.78125 C 26.390625 -20.71875 25.53125 -23.570312 23.8125 -25.34375 C 22.09375 -27.113281 19.503906 -28 16.046875 -28 L 11 -28 L 11 -5.578125 Z M 16.046875 -5.578125 "/></g></g></g><g fill="#ffffff" fill-opacity="1"><g transform="translate(187.49381, 65.643461)"><g><path d="M 16.4375 -33.578125 C 21.894531 -33.578125 26.054688 -32.164062 28.921875 -29.34375 C 31.796875 -26.53125 33.234375 -22.34375 33.234375 -16.78125 C 33.234375 -11.238281 31.796875 -7.054688 28.921875 -4.234375 C 26.054688 -1.410156 21.894531 0 16.4375 0 L 4.359375 0 L 4.359375 -33.578125 Z M 16.046875 -5.578125 C 19.503906 -5.578125 22.09375 -6.460938 23.8125 -8.234375 C 25.53125 -10.003906 26.390625 -12.851562 26.390625 -16.78125 C 26.390625 -20.71875 25.53125 -23.570312 23.8125 -25.34375 C 22.09375 -27.113281 19.503906 -28 16.046875 -28 L 11 -28 L 11 -5.578125 Z M 16.046875 -5.578125 "/></g></g></g><g fill="#000000" fill-opacity="1"><g transform="translate(133.121759, 178.721119)"><g><path d="M 7.390625 0.25 C 6.253906 0.25 5.234375 -0.0078125 4.328125 -0.53125 C 3.421875 -1.050781 2.707031 -1.8125 2.1875 -2.8125 C 1.664062 -3.820312 1.40625 -5.023438 1.40625 -6.421875 C 1.40625 -7.828125 1.664062 -9.035156 2.1875 -10.046875 C 2.707031 -11.054688 3.421875 -11.816406 4.328125 -12.328125 C 5.234375 -12.847656 6.253906 -13.109375 7.390625 -13.109375 C 8.742188 -13.109375 9.820312 -12.851562 10.625 -12.34375 C 11.4375 -11.832031 12.019531 -11.144531 12.375 -10.28125 L 11.078125 -9.359375 L 10.84375 -9.359375 C 10.5 -10.066406 10.050781 -10.582031 9.5 -10.90625 C 8.945312 -11.238281 8.242188 -11.40625 7.390625 -11.40625 C 6.585938 -11.40625 5.882812 -11.21875 5.28125 -10.84375 C 4.6875 -10.46875 4.222656 -9.90625 3.890625 -9.15625 C 3.566406 -8.414062 3.40625 -7.503906 3.40625 -6.421875 C 3.40625 -5.347656 3.570312 -4.441406 3.90625 -3.703125 C 4.238281 -2.960938 4.703125 -2.398438 5.296875 -2.015625 C 5.890625 -1.640625 6.585938 -1.453125 7.390625 -1.453125 C 8.273438 -1.453125 9.007812 -1.65625 9.59375 -2.0625 C 10.1875 -2.46875 10.648438 -3.109375 10.984375 -3.984375 L 11.234375 -3.984375 L 12.484375 -3.25 C 12.148438 -2.164062 11.550781 -1.3125 10.6875 -0.6875 C 9.832031 -0.0625 8.734375 0.25 7.390625 0.25 Z M 7.390625 0.25 "/></g></g></g><g fill="#000000" fill-opacity="1"><g transform="translate(147.578954, 178.721119)"><g><path d="M 7.390625 0.25 C 6.171875 0.25 5.113281 -0.00390625 4.21875 -0.515625 C 3.320312 -1.035156 2.628906 -1.796875 2.140625 -2.796875 C 1.648438 -3.796875 1.40625 -5.003906 1.40625 -6.421875 C 1.40625 -7.847656 1.648438 -9.0625 2.140625 -10.0625 C 2.628906 -11.070312 3.320312 -11.832031 4.21875 -12.34375 C 5.113281 -12.851562 6.171875 -13.109375 7.390625 -13.109375 C 8.597656 -13.109375 9.648438 -12.851562 10.546875 -12.34375 C 11.453125 -11.832031 12.144531 -11.070312 12.625 -10.0625 C 13.113281 -9.0625 13.359375 -7.847656 13.359375 -6.421875 C 13.359375 -5.003906 13.113281 -3.796875 12.625 -2.796875 C 12.144531 -1.796875 11.453125 -1.035156 10.546875 -0.515625 C 9.648438 -0.00390625 8.597656 0.25 7.390625 0.25 Z M 7.390625 -1.453125 C 8.671875 -1.453125 9.648438 -1.859375 10.328125 -2.671875 C 11.003906 -3.484375 11.34375 -4.734375 11.34375 -6.421875 C 11.34375 -8.128906 11.003906 -9.382812 10.328125 -10.1875 C 9.648438 -11 8.671875 -11.40625 7.390625 -11.40625 C 6.097656 -11.40625 5.109375 -11 4.421875 -10.1875 C 3.742188 -9.375 3.40625 -8.117188 3.40625 -6.421875 C 3.40625 -4.734375 3.742188 -3.484375 4.421875 -2.671875 C 5.109375 -1.859375 6.097656 -1.453125 7.390625 -1.453125 Z M 7.390625 -1.453125 "/></g></g></g><g fill="#000000" fill-opacity="1"><g transform="translate(163.540851, 178.721119)"><g><path d="M 2.234375 0 L 2.234375 -12.859375 L 4.046875 -12.859375 L 4.046875 -10.96875 L 4.296875 -10.921875 C 4.734375 -11.640625 5.257812 -12.179688 5.875 -12.546875 C 6.488281 -12.921875 7.226562 -13.109375 8.09375 -13.109375 C 9.09375 -13.109375 9.863281 -12.921875 10.40625 -12.546875 C 10.945312 -12.171875 11.367188 -11.5625 11.671875 -10.71875 L 11.921875 -10.71875 C 12.367188 -11.507812 12.914062 -12.101562 13.5625 -12.5 C 14.207031 -12.90625 15.003906 -13.109375 15.953125 -13.109375 C 17.273438 -13.109375 18.257812 -12.75 18.90625 -12.03125 C 19.5625 -11.320312 19.890625 -10.234375 19.890625 -8.765625 L 19.890625 0 L 17.984375 0 L 17.984375 -8.71875 C 17.984375 -9.65625 17.785156 -10.34375 17.390625 -10.78125 C 17.003906 -11.226562 16.375 -11.453125 15.5 -11.453125 C 14.476562 -11.453125 13.640625 -11.078125 12.984375 -10.328125 C 12.335938 -9.585938 12.015625 -8.363281 12.015625 -6.65625 L 12.015625 0 L 10.109375 0 L 10.109375 -8.71875 C 10.109375 -9.65625 9.910156 -10.34375 9.515625 -10.78125 C 9.128906 -11.226562 8.5 -11.453125 7.625 -11.453125 C 6.601562 -11.453125 5.765625 -11.085938 5.109375 -10.359375 C 4.460938 -9.640625 4.140625 -8.46875 4.140625 -6.84375 L 4.140625 0 Z M 2.234375 0 "/></g></g></g><g fill="#000000" fill-opacity="1"><g transform="translate(186.664687, 178.721119)"><g><path d="M 2.234375 5.21875 L 2.234375 -12.859375 L 4.140625 -12.859375 L 4.140625 -10.9375 L 4.390625 -10.890625 C 5.347656 -12.367188 6.75 -13.109375 8.59375 -13.109375 C 9.664062 -13.109375 10.601562 -12.863281 11.40625 -12.375 C 12.207031 -11.882812 12.828125 -11.140625 13.265625 -10.140625 C 13.710938 -9.140625 13.9375 -7.898438 13.9375 -6.421875 C 13.9375 -4.953125 13.703125 -3.71875 13.234375 -2.71875 C 12.773438 -1.726562 12.128906 -0.984375 11.296875 -0.484375 C 10.472656 0.00390625 9.523438 0.25 8.453125 0.25 C 7.585938 0.25 6.816406 0.0976562 6.140625 -0.203125 C 5.460938 -0.515625 4.878906 -1.015625 4.390625 -1.703125 L 4.140625 -1.65625 L 4.140625 5.21875 Z M 8.03125 -1.453125 C 10.644531 -1.453125 11.953125 -3.109375 11.953125 -6.421875 C 11.953125 -9.742188 10.644531 -11.40625 8.03125 -11.40625 C 7.269531 -11.40625 6.597656 -11.226562 6.015625 -10.875 C 5.429688 -10.53125 4.972656 -9.984375 4.640625 -9.234375 C 4.304688 -8.492188 4.140625 -7.554688 4.140625 -6.421875 C 4.140625 -5.296875 4.304688 -4.363281 4.640625 -3.625 C 4.972656 -2.882812 5.429688 -2.335938 6.015625 -1.984375 C 6.597656 -1.628906 7.269531 -1.453125 8.03125 -1.453125 Z M 8.03125 -1.453125 "/></g></g></g><g fill="#000000" fill-opacity="1"><g transform="translate(203.209804, 178.721119)"><g><path d="M 5.3125 0.25 C 4.039062 0.25 3.046875 -0.078125 2.328125 -0.734375 C 1.617188 -1.398438 1.265625 -2.347656 1.265625 -3.578125 C 1.265625 -4.335938 1.421875 -4.976562 1.734375 -5.5 C 2.054688 -6.03125 2.546875 -6.460938 3.203125 -6.796875 C 3.867188 -7.128906 4.734375 -7.382812 5.796875 -7.5625 C 6.734375 -7.71875 7.441406 -7.890625 7.921875 -8.078125 C 8.410156 -8.273438 8.738281 -8.492188 8.90625 -8.734375 C 9.070312 -8.972656 9.15625 -9.273438 9.15625 -9.640625 C 9.15625 -10.222656 8.953125 -10.671875 8.546875 -10.984375 C 8.148438 -11.296875 7.507812 -11.453125 6.625 -11.453125 C 5.789062 -11.453125 5.078125 -11.289062 4.484375 -10.96875 C 3.890625 -10.644531 3.34375 -10.164062 2.84375 -9.53125 L 2.609375 -9.53125 L 1.6875 -10.84375 C 2.226562 -11.539062 2.914062 -12.09375 3.75 -12.5 C 4.59375 -12.90625 5.550781 -13.109375 6.625 -13.109375 C 8.144531 -13.109375 9.265625 -12.773438 9.984375 -12.109375 C 10.703125 -11.441406 11.0625 -10.523438 11.0625 -9.359375 L 11.0625 -2.53125 C 11.0625 -1.8125 11.363281 -1.453125 11.96875 -1.453125 C 12.164062 -1.453125 12.359375 -1.488281 12.546875 -1.5625 L 12.71875 -1.515625 L 12.9375 -0.203125 C 12.800781 -0.109375 12.613281 -0.0351562 12.375 0.015625 C 12.144531 0.0664062 11.910156 0.09375 11.671875 0.09375 C 10.960938 0.09375 10.425781 -0.0625 10.0625 -0.375 C 9.707031 -0.6875 9.476562 -1.144531 9.375 -1.75 L 9.140625 -1.765625 C 8.765625 -1.097656 8.265625 -0.59375 7.640625 -0.25 C 7.023438 0.0820312 6.25 0.25 5.3125 0.25 Z M 5.734375 -1.265625 C 6.441406 -1.265625 7.054688 -1.429688 7.578125 -1.765625 C 8.109375 -2.097656 8.515625 -2.5625 8.796875 -3.15625 C 9.078125 -3.757812 9.21875 -4.453125 9.21875 -5.234375 L 9.21875 -6.875 L 9 -6.921875 C 8.707031 -6.710938 8.351562 -6.539062 7.9375 -6.40625 C 7.53125 -6.269531 6.957031 -6.148438 6.21875 -6.046875 C 5.46875 -5.941406 4.875 -5.785156 4.4375 -5.578125 C 4 -5.367188 3.6875 -5.101562 3.5 -4.78125 C 3.3125 -4.457031 3.21875 -4.054688 3.21875 -3.578125 C 3.21875 -2.828125 3.4375 -2.253906 3.875 -1.859375 C 4.320312 -1.460938 4.941406 -1.265625 5.734375 -1.265625 Z M 5.734375 -1.265625 "/></g></g></g><g fill="#000000" fill-opacity="1"><g transform="translate(217.713662, 178.721119)"><g><path d="M 5.875 0.25 C 5.0625 0.25 4.3125 0.144531 3.625 -0.0625 C 2.9375 -0.28125 2.351562 -0.578125 1.875 -0.953125 C 1.40625 -1.328125 1.070312 -1.75 0.875 -2.21875 L 2 -3.390625 L 2.234375 -3.390625 C 2.660156 -2.742188 3.164062 -2.257812 3.75 -1.9375 C 4.34375 -1.613281 5.050781 -1.453125 5.875 -1.453125 C 6.820312 -1.453125 7.539062 -1.632812 8.03125 -2 C 8.519531 -2.375 8.765625 -2.894531 8.765625 -3.5625 C 8.765625 -4.0625 8.613281 -4.476562 8.3125 -4.8125 C 8.019531 -5.144531 7.539062 -5.390625 6.875 -5.546875 L 4.703125 -6.09375 C 3.546875 -6.375 2.695312 -6.816406 2.15625 -7.421875 C 1.625 -8.023438 1.359375 -8.773438 1.359375 -9.671875 C 1.359375 -10.367188 1.535156 -10.972656 1.890625 -11.484375 C 2.253906 -12.003906 2.769531 -12.40625 3.4375 -12.6875 C 4.113281 -12.96875 4.914062 -13.109375 5.84375 -13.109375 C 7.03125 -13.109375 7.960938 -12.941406 8.640625 -12.609375 C 9.316406 -12.285156 9.847656 -11.828125 10.234375 -11.234375 L 9.15625 -10.1875 L 8.921875 -10.1875 C 8.515625 -10.65625 8.066406 -10.992188 7.578125 -11.203125 C 7.085938 -11.421875 6.507812 -11.53125 5.84375 -11.53125 C 5 -11.53125 4.347656 -11.375 3.890625 -11.0625 C 3.441406 -10.757812 3.21875 -10.320312 3.21875 -9.75 C 3.21875 -9.226562 3.375 -8.804688 3.6875 -8.484375 C 4.007812 -8.171875 4.566406 -7.914062 5.359375 -7.71875 L 7.5 -7.203125 C 8.625 -6.941406 9.429688 -6.503906 9.921875 -5.890625 C 10.421875 -5.273438 10.671875 -4.503906 10.671875 -3.578125 C 10.671875 -2.828125 10.488281 -2.160156 10.125 -1.578125 C 9.769531 -1.003906 9.234375 -0.554688 8.515625 -0.234375 C 7.796875 0.0859375 6.914062 0.25 5.875 0.25 Z M 5.875 0.25 "/></g></g></g><g fill="#000000" fill-opacity="1"><g transform="translate(230.806112, 178.721119)"><g><path d="M 5.875 0.25 C 5.0625 0.25 4.3125 0.144531 3.625 -0.0625 C 2.9375 -0.28125 2.351562 -0.578125 1.875 -0.953125 C 1.40625 -1.328125 1.070312 -1.75 0.875 -2.21875 L 2 -3.390625 L 2.234375 -3.390625 C 2.660156 -2.742188 3.164062 -2.257812 3.75 -1.9375 C 4.34375 -1.613281 5.050781 -1.453125 5.875 -1.453125 C 6.820312 -1.453125 7.539062 -1.632812 8.03125 -2 C 8.519531 -2.375 8.765625 -2.894531 8.765625 -3.5625 C 8.765625 -4.0625 8.613281 -4.476562 8.3125 -4.8125 C 8.019531 -5.144531 7.539062 -5.390625 6.875 -5.546875 L 4.703125 -6.09375 C 3.546875 -6.375 2.695312 -6.816406 2.15625 -7.421875 C 1.625 -8.023438 1.359375 -8.773438 1.359375 -9.671875 C 1.359375 -10.367188 1.535156 -10.972656 1.890625 -11.484375 C 2.253906 -12.003906 2.769531 -12.40625 3.4375 -12.6875 C 4.113281 -12.96875 4.914062 -13.109375 5.84375 -13.109375 C 7.03125 -13.109375 7.960938 -12.941406 8.640625 -12.609375 C 9.316406 -12.285156 9.847656 -11.828125 10.234375 -11.234375 L 9.15625 -10.1875 L 8.921875 -10.1875 C 8.515625 -10.65625 8.066406 -10.992188 7.578125 -11.203125 C 7.085938 -11.421875 6.507812 -11.53125 5.84375 -11.53125 C 5 -11.53125 4.347656 -11.375 3.890625 -11.0625 C 3.441406 -10.757812 3.21875 -10.320312 3.21875 -9.75 C 3.21875 -9.226562 3.375 -8.804688 3.6875 -8.484375 C 4.007812 -8.171875 4.566406 -7.914062 5.359375 -7.71875 L 7.5 -7.203125 C 8.625 -6.941406 9.429688 -6.503906 9.921875 -5.890625 C 10.421875 -5.273438 10.671875 -4.503906 10.671875 -3.578125 C 10.671875 -2.828125 10.488281 -2.160156 10.125 -1.578125 C 9.769531 -1.003906 9.234375 -0.554688 8.515625 -0.234375 C 7.796875 0.0859375 6.914062 0.25 5.875 0.25 Z M 5.875 0.25 "/></g></g></g><path stroke-linecap="butt" transform="matrix(0.748005, 0.000000000000000979, -0.000000000000000979, 0.748005, 59.827691, 172.704116)" fill="none" stroke-linejoin="miter" d="M 0.000580169 0.500008 L 86.846142 0.500008 " stroke="#000000" stroke-width="1" stroke-opacity="1" stroke-miterlimit="4"/><path stroke-linecap="butt" transform="matrix(0.748005, 0.00000000000000049, -0.00000000000000049, 0.748005, 250.21024, 172.065756)" fill="none" stroke-linejoin="miter" d="M 0.000931835 0.502203 L 86.846493 0.502203 " stroke="#000000" stroke-width="1" stroke-opacity="1" stroke-miterlimit="4"/></svg>